# xmcd CD database file
#
# Track frame offsets:
#	150
#	22217
#	34165
#	47822
#	67692
#	80052
#	96787
#	112742
#	130977
#	143965
#	161420
#	175377
#
# Disc length: 2556 seconds
#
# Revision: 0
# Processed by: cddbd v1.5.2PL0 Copyright (c) Steve Scherf et al.
# Submitted via: jetAudio 7
#
DISCID=9f09fa0c
DTITLE=Andre Schwartz - Only you
DYEAR=1900
DGENRE=Dream
TTITLE0=The winner takes it all
TTITLE1=Only you
TTITLE2=Pretty woman
TTITLE3=Cry to me
TTITLE4=Tie a yellow ribbon
TTITLE5=Met liefde
TTITLE6=Joy to the world
TTITLE7=Last thing on my mind
TTITLE8=Town without pity
TTITLE9=That lucky old sun
TTITLE10=Call me
TTITLE11=Imagine
EXTD=ID3G:  55
EXTT0=
EXTT1=
EXTT2=
EXTT3=
EXTT4=
EXTT5=
EXTT6=
EXTT7=
EXTT8=
EXTT9=
EXTT10=
EXTT11=
PLAYORDER=
